<svg data-v-423bf9ae="" xmlns="http://www.w3.org/2000/svg" viewBox="0 0 379 90" class="iconLeft"><!----><!----><!----><g data-v-423bf9ae="" id="f7e8e017-9569-4fc4-836d-91f8a4883890" fill="white" transform="matrix(5.797101235611727,0,0,5.797101235611727,125.61466859527593,-2.101448683063346)"><path d="M2.94 12.75L3.22 12.75L5.67 2.98L6.19 2.98L3.60 13.30L2.56 13.30L0 2.98L0.49 2.98ZM3.08 9.91L4.83 2.98L5.32 2.98L3.08 11.96L0.84 2.98L1.36 2.98ZM6.45 2.98L9.31 8.19L9.31 13.30L8.83 13.30L8.83 8.32L5.89 2.98ZM11.59 2.98L12.12 2.98L9.48 7.80L6.83 2.98L7.41 2.98L9.49 6.78ZM9.63 13.30L9.63 8.19L12.50 2.98L13.10 2.98L10.15 8.32L10.15 13.30ZM15.02 8.76L15.02 13.27L14.53 13.27L14.53 8.27L15.85 8.27C17.30 8.27 17.98 7.52 17.98 5.85C17.98 4.21 17.30 3.44 15.85 3.44L13.71 3.44L13.71 2.95L15.85 2.95C16.73 2.95 17.40 3.21 17.85 3.72C18.27 4.20 18.48 4.91 18.48 5.85C18.48 7.74 17.63 8.76 15.85 8.76ZM13.71 3.78L14.20 3.78L14.20 13.27L13.71 13.27ZM14.53 7.94L14.53 3.78L15.85 3.78C17.12 3.78 17.65 4.38 17.65 5.85C17.65 7.32 17.12 7.94 15.85 7.94ZM15.02 4.27L15.02 7.45L15.85 7.45C16.21 7.45 16.46 7.41 16.59 7.32C16.72 7.24 16.80 7.17 16.84 7.13C17.05 6.89 17.15 6.47 17.15 5.85C17.15 5.18 17.04 4.79 16.83 4.56C16.60 4.34 16.28 4.27 15.85 4.27ZM19.57 3.49L19.57 12.81L23.35 12.81L23.35 13.30L19.08 13.30L19.08 2.98L23.35 2.98L23.35 3.49ZM19.91 3.81L23.35 3.81L23.35 4.31L20.40 4.31L20.40 7.48L23.35 7.48L23.35 7.98L19.91 7.98ZM19.91 8.30L23.35 8.30L23.35 8.81L20.40 8.81L20.40 11.98L23.35 11.98L23.35 12.47L19.91 12.47ZM29.08 13.30L28.57 13.30L28.57 10.25C28.57 9.56 28.38 9.02 27.97 8.61C27.80 8.46 27.61 8.33 27.38 8.23C28.17 7.94 28.56 7.17 28.56 5.92C28.56 4.26 27.90 3.49 26.43 3.49L24.29 3.49L24.29 2.98L26.43 2.98C28.21 2.98 29.05 4.00 29.05 5.92C29.05 6.87 28.84 7.60 28.43 8.09C28.42 8.11 28.39 8.13 28.38 8.16C28.35 8.19 28.32 8.22 28.29 8.23C28.80 8.72 29.08 9.39 29.08 10.25ZM24.29 3.81L24.78 3.81L24.78 13.30L24.29 13.30ZM25.12 8.05L25.12 3.81L26.43 3.81C27.71 3.81 28.22 4.42 28.22 5.92C28.22 7.43 27.71 8.05 26.43 8.05ZM25.61 4.31L25.61 7.56L26.43 7.56C26.78 7.56 27.03 7.52 27.17 7.43C27.30 7.35 27.38 7.28 27.43 7.24C27.64 6.97 27.73 6.54 27.73 5.92C27.73 5.24 27.62 4.83 27.41 4.59C27.19 4.37 26.87 4.31 26.43 4.31ZM28.25 13.30L27.75 13.30L27.75 10.25C27.75 9.34 27.31 8.89 26.43 8.89L25.61 8.89L25.61 13.30L25.12 13.30L25.12 8.39L26.43 8.39C27.59 8.39 28.25 9.06 28.25 10.25ZM30.55 13.29L30.55 2.97L31.04 2.97L31.04 13.29ZM31.86 13.29L31.37 13.29L31.37 2.97L31.86 2.97ZM37.86 10.33C37.86 11.26 37.66 11.96 37.27 12.45C37.11 12.63 36.92 12.84 36.61 12.99C36.30 13.16 35.91 13.27 35.41 13.27C34.40 13.27 33.84 12.82 33.54 12.45C33.15 11.96 32.96 11.26 32.96 10.33L32.96 5.88C32.96 4.97 33.15 4.27 33.54 3.77C33.84 3.39 34.40 2.95 35.41 2.95C36.41 2.95 36.97 3.39 37.27 3.77C37.66 4.27 37.86 4.97 37.86 5.88ZM37.37 5.88C37.37 4.30 36.69 3.44 35.41 3.44C34.12 3.44 33.45 4.30 33.45 5.88L33.45 10.33C33.45 11.91 34.13 12.78 35.41 12.78C36.68 12.78 37.37 11.91 37.37 10.33ZM37.03 10.33C37.03 11.75 36.48 12.45 35.41 12.45C34.33 12.45 33.78 11.75 33.78 10.33L33.78 5.88C33.78 5.15 33.92 4.62 34.20 4.28C34.45 3.95 34.86 3.78 35.41 3.78C35.95 3.78 36.36 3.95 36.61 4.28C36.89 4.62 37.03 5.15 37.03 5.88ZM36.54 5.88C36.54 5.08 36.36 4.66 36.12 4.47C35.88 4.27 35.59 4.27 35.41 4.27C35.20 4.27 34.93 4.27 34.69 4.47C34.45 4.66 34.27 5.08 34.27 5.88L34.27 10.33C34.27 11.16 34.45 11.55 34.69 11.75C34.93 11.94 35.20 11.96 35.41 11.96C35.59 11.96 35.88 11.94 36.12 11.75C36.36 11.55 36.54 11.16 36.54 10.33ZM42.76 2.95L42.76 11.76L39.41 3.46L39.12 3.46L39.12 13.27L38.63 13.27L38.63 2.95L39.73 2.95L42.25 9.20L42.25 2.95ZM42.80 12.77L43.08 12.77L43.08 2.95L43.58 2.95L43.58 13.27L42.46 13.27L39.94 7.03L39.94 13.27L39.45 13.27L39.45 4.47Z"></path></g><!----><g data-v-423bf9ae="" id="5678c788-e6a3-4819-89b7-57a47b766d8f" transform="matrix(1.0569583846290314,0,0,1.0569583846290314,365.9002357585818,-278.00428051086277)" stroke="none" fill="white"><path d="M-341.761 348.574c2.624-.109 4.585-17.474 4.966-34.197a.568.568 0 0 1 .566-.554h.002c.307 0 .558.242.566.548.411 12.211 1.848 22.815 3.137 23.159.051-.001.183-.001.386-.211 2.959-3.044 2.945-26.777 2.691-35.665a.567.567 0 0 1 .544-.583c.315.003.574.227.588.539.587 11.48 1.929 23.843 3.173 24.87.314-.02.616-.179.921-.488 3.645-3.725 4.183-24.43 3.959-34.859a.567.567 0 0 1 .554-.581.546.546 0 0 1 .58.555v.01c.245 11.219 1.296 23.245 2.633 23.958 2.294-.008 3.944-10.677 4.368-18.25a.567.567 0 0 1 .515-.534.56.56 0 0 1 .602.429c1.138 4.665 3.57 11.232 5.415 11.232 1.582-.095 3.892-1.394 6.723-3.761v-23.348c-9.835-1.687-9.49-7.179-9.235-11.205.063-.988.123-1.92.021-2.676-.218-1.631-1.499-3.537-4.399-3.537-.387 0-.797.035-1.218.103-26.453 4.325-33.907 49.55-32.02 72.802.686 8.46 2.466 12.245 3.925 12.245l.037-.001zM-250.314 348.574c-2.623-.109-4.586-17.474-4.966-34.197a.567.567 0 0 0-.565-.554h-.003a.566.566 0 0 0-.566.548c-.41 12.211-1.847 22.815-3.136 23.159-.052-.001-.183-.001-.387-.211-2.959-3.044-2.944-26.777-2.691-35.665a.567.567 0 0 0-.544-.583c-.314.003-.573.227-.588.539-.588 11.48-1.93 23.843-3.174 24.87-.313-.02-.615-.179-.92-.488-3.645-3.725-4.184-24.43-3.96-34.859a.566.566 0 0 0-.554-.581.547.547 0 0 0-.581.555v.01c-.243 11.219-1.296 23.245-2.632 23.958-2.293-.008-3.944-10.677-4.368-18.25a.567.567 0 0 0-.515-.534.562.562 0 0 0-.603.429c-1.138 4.665-3.569 11.232-5.413 11.232-1.583-.095-3.894-1.394-6.724-3.761v-23.348c9.834-1.687 9.489-7.179 9.234-11.205-.062-.988-.122-1.92-.02-2.676.218-1.631 1.498-3.537 4.396-3.537.39 0 .8.035 1.221.103 26.453 4.325 33.907 49.55 32.02 72.802-.686 8.46-2.467 12.245-3.925 12.245l-.036-.001z"></path></g><!----></svg>